<svg xmlns="http://www.w3.org/2000/svg" viewBox="0 0 262.55 252"><title>Cookie</title><g style="isolation:isolate"><g id="Capa_1" data-name="Capa 1"><path d="M185.68,149.11a3.25,3.25,0,0,1-2.93-1.84L150.37,80.58a3,3,0,0,1-.18-.45c0-.12-3.84-12.32-7.43-24.61-7.66-26.23-7-27.18-6-28.76.59-.94,1.84-2.92,33.45-16.3a3.11,3.11,0,0,1,1.27-.26,3.25,3.25,0,0,1,3.23,3.64c0,.26-2.95,26.5,9.56,40.81,5.21,6,12.55,9.07,21.79,9.23a3.25,3.25,0,0,1,3,4.47c-.43,1.11-10.21,27.94,38.82,49.83a3.25,3.25,0,0,1-.1,6l-60.8,24.71A3.27,3.27,0,0,1,185.68,149.11Z" transform="translate(-1.89 -1.78)" style="fill:#985e2a"/><path d="M171.44,13.45s-6.31,53,34.52,53.68c0,0-12.31,30.44,40.51,54l-60.79,24.7L153.3,79.16s-15.16-48.59-13.84-50.65,32-15.06,32-15.06m0-6.5a6.39,6.39,0,0,0-2.53.51C136.36,21.25,135.14,23.17,134,25c-1.8,2.82-1.24,5.87.8,13.88,1.11,4.36,2.75,10.26,4.88,17.53,3.6,12.32,7.41,24.55,7.45,24.67a7,7,0,0,0,.36.9l32.37,66.7a6.52,6.52,0,0,0,5.86,3.66,6.4,6.4,0,0,0,2.45-.48l60.79-24.7a6.51,6.51,0,0,0,.21-12C202.57,94.43,211.89,69.82,212,69.57a6.49,6.49,0,0,0-5.92-8.94c-8.4-.15-14.75-2.81-19.41-8.14-5.9-6.76-8-16.71-8.7-23.87a73.67,73.67,0,0,1-.06-14.4A6.51,6.51,0,0,0,171.43,7Z" transform="translate(-1.89 -1.78)" style="fill:#3c2415"/><path d="M128,251.46a100.64,100.64,0,0,1-18.54-1.73,106.26,106.26,0,0,1-23-5.8,141.05,141.05,0,0,1-27.8-14.1A127.76,127.76,0,0,1,34.12,209a117,117,0,0,1-12.91-17.46,113.72,113.72,0,0,1-9.54-20c-12.8-34.17-9-72.31,10.47-104.6,19.27-32,50.53-53,85.77-57.51,9.23-1.32,18.8-2.69,28.3-2.69a75.49,75.49,0,0,1,21.38,2.84A109.05,109.05,0,0,1,170.75,14a2.33,2.33,0,0,1,.84,3.71L170,19.51A33.07,33.07,0,0,0,164.26,35v1l.38,9.15A32.76,32.76,0,0,0,193.8,72h.26l.51,0a2.33,2.33,0,0,1,2,3.16,32.43,32.43,0,0,0-2.1,8.72A32.93,32.93,0,0,0,202,108.08l6.41,5.83a32.78,32.78,0,0,0,15.49,5.7h1l9.15-.37a33,33,0,0,0,9.3-3.2,2.42,2.42,0,0,1,1.08-.26,2.25,2.25,0,0,1,1.1.28,2.34,2.34,0,0,1,1.21,1.81c.39,3.91.6,7.49.65,10.95,1.09,29.86-11.44,60.65-34.37,84.42-23.42,24.29-54.44,38.22-85.1,38.22Z" transform="translate(-1.89 -1.78)" style="fill:#fac770"/><path d="M136.21,9.06a73.41,73.41,0,0,1,20.73,2.74,108.6,108.6,0,0,1,12.93,4.36l-1.73,1.9a35.13,35.13,0,0,0-6.2,16.82V36l.39,9.41A35.08,35.08,0,0,0,193.58,74.3c.27,0,.54,0,.81,0a34.63,34.63,0,0,0-2.24,9.34,35.36,35.36,0,0,0,8.18,26l6.64,6a35.09,35.09,0,0,0,16.82,6.2H225l9.41-.39a35.31,35.31,0,0,0,10.12-3.45c.35,3.54.59,7.12.64,10.76,2.27,62.63-55.37,120.27-117.16,120.27a97.4,97.4,0,0,1-18.17-1.7,103.41,103.41,0,0,1-22.5-5.67A139.35,139.35,0,0,1,60,227.88a125.42,125.42,0,0,1-24.11-20.43,114.32,114.32,0,0,1-12.64-17.1,111.88,111.88,0,0,1-9.35-19.61C-12.62,100,36.17,21,108.2,11.72c9.34-1.33,18.68-2.66,28-2.66m0-4.65c-9.65,0-19.3,1.38-28.63,2.71A115.13,115.13,0,0,0,56.75,26.69a127.26,127.26,0,0,0-36.6,39C.33,98.63-3.55,137.49,9.49,172.34a116.79,116.79,0,0,0,9.73,20.41,118.56,118.56,0,0,0,13.16,17.8,129.9,129.9,0,0,0,25,21.22,143.55,143.55,0,0,0,28.26,14.34A108.29,108.29,0,0,0,109.05,252,102,102,0,0,0,128,253.78c31.29,0,62.93-14.19,86.79-38.94,23.35-24.21,36.11-55.59,35-86.1-.06-3.51-.28-7.14-.67-11.09a4.62,4.62,0,0,0-2.41-3.63,4.57,4.57,0,0,0-2.21-.56,4.64,4.64,0,0,0-2.15.52,30.54,30.54,0,0,1-8.49,2.94l-7.85.32-1.13.05H224a30.15,30.15,0,0,1-14.17-5.2l-3.08-2.81-3.09-2.81a30.17,30.17,0,0,1-5-30.45,4.64,4.64,0,0,0-4-6.31c-.21,0-.41,0-.62,0H194a30.66,30.66,0,0,1-20.3-10.62A30,30,0,0,1,167,44.93l-.12-2.81c-.08-2.06-.17-4.12-.25-6.17v-.83A30.15,30.15,0,0,1,171.79,21l.32-.35,1.2-1.33a4.64,4.64,0,0,0-1.69-7.42,111.83,111.83,0,0,0-13.43-4.54,77.88,77.88,0,0,0-22-2.91Z" transform="translate(-1.89 -1.78)" style="fill:#3c2415"/><g style="mix-blend-mode:multiply"><path d="M244.48,118.1a35.31,35.31,0,0,1-10.12,3.45l-4.77.2c-3,65.46-69.84,122.83-135.25,110.43a103.27,103.27,0,0,1-22.5-5.67,139.71,139.71,0,0,1-27.35-13.88A131.71,131.71,0,0,1,33,204.16c.92,1.11,1.85,2.21,2.81,3.29A125.42,125.42,0,0,0,60,227.88a139.35,139.35,0,0,0,27.34,13.88,103.41,103.41,0,0,0,22.5,5.67c68.12,12.92,137.82-49.82,135.33-118.57C245.07,125.22,244.83,121.64,244.48,118.1Z" transform="translate(-1.89 -1.78)" style="fill:#fac770"/></g><path d="M45,82.68c-8.8,0-15.54-7.28-15.68-16.94a16.65,16.65,0,0,1,5-12A19,19,0,0,1,47.41,48.1a15,15,0,0,1,12.94,7.26c4.75,7.47,2.15,18.72-5.56,24.06A17.31,17.31,0,0,1,45,82.68Z" transform="translate(-1.89 -1.78)" style="fill:#754c29"/><path d="M47.41,50.42a12.66,12.66,0,0,1,11,6.19c4.21,6.63,1.41,16.51-4.92,20.9A14.9,14.9,0,0,1,45,80.36c-7.16,0-13.23-5.93-13.36-14.65s8-15.29,15.82-15.29m0-4.64a21.33,21.33,0,0,0-14.83,6.36,19,19,0,0,0-5.64,13.64C27.11,76.74,34.85,85,45,85a19.65,19.65,0,0,0,11.17-3.67c8.68-6,11.57-18.74,6.19-27.22a17.22,17.22,0,0,0-14.9-8.33Z" transform="translate(-1.89 -1.78)" style="fill:#3c2415"/><g style="mix-blend-mode:multiply"><path d="M58.39,56.61a14,14,0,0,0-1.78-2.25c2,6.34-.8,14.2-6.26,18-6.44,4.47-13.48,3.34-17.79-1.19,3,8.47,12.46,12.23,20.91,6.36C59.8,73.12,62.6,63.24,58.39,56.61Z" transform="translate(-1.89 -1.78)" style="fill:#c49a6c"/></g><path d="M162.17,43.75a2.33,2.33,0,0,1-1.14-.29,19.59,19.59,0,0,1-3.93-2.82c-6.48-6.21-7.25-17.93-1.68-25.58A12.58,12.58,0,0,1,166,9.42a22.53,22.53,0,0,1,7.47,1.5,2.33,2.33,0,0,1,1,3.76L170,19.51A33.07,33.07,0,0,0,164.26,35v1l.23,5.34a2.33,2.33,0,0,1-1.11,2.08A2.29,2.29,0,0,1,162.17,43.75Z" transform="translate(-1.89 -1.78)" style="fill:#754c29"/><path d="M166,11.75a20.72,20.72,0,0,1,6.7,1.36l-4.51,4.95a35.13,35.13,0,0,0-6.2,16.82V36c.08,1.8.15,3.59.23,5.39A16.71,16.71,0,0,1,158.71,39c-5.94-5.69-6.1-16.09-1.41-22.53,2.51-3.45,5.45-4.68,8.65-4.68m0-4.65c-5,0-9.22,2.22-12.41,6.59-6.33,8.69-5.45,21.54,2,28.63a21.66,21.66,0,0,0,4.41,3.17,4.72,4.72,0,0,0,2.27.59,4.65,4.65,0,0,0,4.64-4.84l-.06-1.36c-.05-1.31-.1-2.63-.16-3.94v-.82A30.15,30.15,0,0,1,171.79,21l2.9-3.18,1.39-1.54a4.64,4.64,0,0,0-1.89-7.51A24.7,24.7,0,0,0,166,7.1Z" transform="translate(-1.89 -1.78)" style="fill:#3c2415"/><g style="mix-blend-mode:multiply"><path d="M162,37.57a24.18,24.18,0,0,1-6.51-3.26A14.6,14.6,0,0,0,158.71,39a16.71,16.71,0,0,0,3.46,2.47C162.11,40.14,162.06,38.85,162,37.57Z" transform="translate(-1.89 -1.78)" style="fill:#c49a6c"/></g><path d="M156.14,213c-6,0-10.37-1.61-13-4.79-2.55-3-3.37-7.26-2.45-12.61,1.75-10.2,11.17-18.81,20.58-18.81,5.64,0,10.47,3.12,13.59,8.78a17.64,17.64,0,0,1,0,17A19,19,0,0,1,159.9,212.8c-1.3.13-2.57.19-3.76.19Z" transform="translate(-1.89 -1.78)" style="fill:#754c29"/><path d="M161.22,179.11c4.36,0,8.59,2.2,11.56,7.57,5.53,10-2,22.71-13.1,23.81q-1.85.18-3.54.18c-9.17,0-15-4.1-13.21-14.69,1.58-9.18,10.15-16.87,18.29-16.87m0-4.65c-10.47,0-20.94,9.49-22.87,20.73-1,6.06,0,10.94,3,14.51,3.15,3.73,8.13,5.62,14.83,5.62a39.86,39.86,0,0,0,4-.21,21.29,21.29,0,0,0,16.71-11.47,20.2,20.2,0,0,0,0-19.2c-3.56-6.44-9.1-10-15.63-10Z" transform="translate(-1.89 -1.78)" style="fill:#3c2415"/><g style="mix-blend-mode:multiply"><path d="M172.78,186.68a14.84,14.84,0,0,0-6-6.2,17.25,17.25,0,0,1,1.36,2.1c5.53,10-2,22.71-13.1,23.81-4.4.43-8.24.1-11.17-1.18,2.48,4.58,8.35,6,15.8,5.28C170.82,209.39,178.31,196.7,172.78,186.68Z" transform="translate(-1.89 -1.78)" style="fill:#c49a6c"/></g><path d="M192.6,95.53a2.33,2.33,0,0,1-1.95-1,14,14,0,0,1,.1-15.52,2.32,2.32,0,0,1,4.17,1.8,31.54,31.54,0,0,0-.46,3.14,32.71,32.71,0,0,0,.43,8.89,2.32,2.32,0,0,1-2.29,2.74Z" transform="translate(-1.89 -1.78)" style="fill:#754c29"/><path d="M192.64,80.31h0m0,0c-.22,1.11-.38,2.23-.49,3.37a35,35,0,0,0,.45,9.53,11.64,11.64,0,0,1,0-12.9m0-4.65-.38,0a4.65,4.65,0,0,0-3.19,1.65l-.25.33a16.2,16.2,0,0,0-.11,18.09,4.64,4.64,0,0,0,3.89,2.11,4.65,4.65,0,0,0,4.57-5.48,31,31,0,0,1-.4-8.27c.1-1,.23-1.88.4-2.74a5.3,5.3,0,0,0,.12-1.06,4.66,4.66,0,0,0-4.35-4.64Z" transform="translate(-1.89 -1.78)" style="fill:#3c2415"/><path d="M114.88,84.36c-5.89,0-10.19-3.74-11.52-10a14.91,14.91,0,0,1,2.77-12.73,14.21,14.21,0,0,1,10.92-5.28c5.82,0,10.46,3.83,12.11,10a13.55,13.55,0,0,1-2.34,12,15.43,15.43,0,0,1-11.94,6Z" transform="translate(-1.89 -1.78)" style="fill:#754c29"/><path d="M117.05,58.68c4.22,0,8.33,2.51,9.87,8.28,2.3,8.62-5.23,15.08-12,15.08-4.15,0-8-2.4-9.24-8.15-2-9.2,4.87-15.21,11.41-15.21m0-4.64a16.54,16.54,0,0,0-12.72,6.14,17.14,17.14,0,0,0-3.24,14.67c1.55,7.3,6.83,11.83,13.79,11.83a17.78,17.78,0,0,0,13.78-6.91,15.78,15.78,0,0,0,2.74-14C129.48,58.53,124,54,117.05,54Z" transform="translate(-1.89 -1.78)" style="fill:#3c2415"/><g style="mix-blend-mode:multiply"><path d="M126.92,67a13,13,0,0,0-1.78-4c.11.31.22.63.31,1,3.27,12.24-13.28,20.11-19.44,11.34C110.25,88.55,130.51,80.38,126.92,67Z" transform="translate(-1.89 -1.78)" style="fill:#c49a6c"/></g><path d="M24,184.28c-4.75,0-9.69-2.33-13.56-6.38a21,21,0,0,1-6.06-15.21C4.86,152.26,15.43,145,24.62,145a14.45,14.45,0,0,1,12.91,7c3.65,6.07,3.3,15.95-.82,23.51-3,5.47-7.33,8.58-12.25,8.73Z" transform="translate(-1.89 -1.78)" style="fill:#754c29"/><path d="M24.62,147.2a12.33,12.33,0,0,1,11,6c5.64,9.4-.09,28.54-11.26,28.9H24c-8.77,0-17.89-9.37-17.42-19.27.43-9,9.68-15.6,18.05-15.6m0-4.42a24,24,0,0,0-14.79,5.4,19.82,19.82,0,0,0-7.67,14.41,23.12,23.12,0,0,0,6.68,16.83c4.28,4.49,9.8,7.07,15.15,7.07h.54c5.65-.18,10.8-3.78,14.12-9.88,4.47-8.2,4.79-19,.77-25.7a16.78,16.78,0,0,0-14.8-8.12Z" transform="translate(-1.89 -1.78)" style="fill:#3c2415"/><g style="mix-blend-mode:multiply"><path d="M35.64,153.17a11.85,11.85,0,0,0-7-5.4c.26.36.56.68.8,1.08,5.64,9.39-.09,28.54-11.26,28.9a14.18,14.18,0,0,1-5.91-1.2c3.37,3.45,7.82,5.66,12.16,5.52C35.55,181.71,41.28,162.57,35.64,153.17Z" transform="translate(-1.89 -1.78)" style="fill:#c49a6c"/></g><path d="M123.08,250.89c-5.45,0-10-1.67-12.6-4.59a10,10,0,0,1-2.27-8.2c1.1-8.41,7.73-14.74,15.42-14.74,4.64,0,8.84,2.36,11.83,6.66,2.89,4.15,3.54,9.08,1.76,13.17s-5.6,6.75-10.53,7.44a25.46,25.46,0,0,1-3.61.26Z" transform="translate(-1.89 -1.78)" style="fill:#754c29"/><path d="M123.63,225.68c3.56,0,7.18,1.72,9.92,5.66,5,7.22,1.68,15.75-7.18,17a23.6,23.6,0,0,1-3.29.23c-6.59,0-13.55-2.74-12.57-10.16,1-7.61,7-12.72,13.12-12.72m0-4.65c-8.85,0-16.47,7.21-17.73,16.76a12.36,12.36,0,0,0,2.83,10.05c4.1,4.67,10.75,5.37,14.35,5.37a28.66,28.66,0,0,0,3.94-.27c5.74-.81,10.23-4,12.33-8.82s1.37-10.61-2-15.43S129.05,221,123.63,221Z" transform="translate(-1.89 -1.78)" style="fill:#3c2415"/><g style="mix-blend-mode:multiply"><path d="M133.55,231.34a13.06,13.06,0,0,0-5.78-4.8,16,16,0,0,1,1.37,1.71c5,7.22,1.68,15.74-7.18,17a21.34,21.34,0,0,1-10-.9c2.84,3.76,9.26,4.73,14.46,4C135.23,247.09,138.57,238.56,133.55,231.34Z" transform="translate(-1.89 -1.78)" style="fill:#c49a6c"/></g><path d="M78,209.58c-6.41,0-11.84-2.82-14.18-7.37a13.68,13.68,0,0,1,.62-13.63,17.84,17.84,0,0,1,14.65-8.39,13.82,13.82,0,0,1,6.14,1.4c5.9,2.91,9.51,7.85,9.65,13.21.14,5.07-2.86,9.71-8.23,12.73A18,18,0,0,1,78,209.58Z" transform="translate(-1.89 -1.78)" style="fill:#754c29"/><path d="M79.05,182.51a11.54,11.54,0,0,1,5.11,1.17c10.14,5,11.64,16,1.31,21.82A15.58,15.58,0,0,1,78,207.26c-4.85,0-9.94-1.88-12.11-6.11-4.7-9.17,4.32-18.64,13.2-18.64m0-4.65a20,20,0,0,0-16.64,9.51,16,16,0,0,0-.69,15.9c2.73,5.33,9,8.64,16.24,8.64a20.39,20.39,0,0,0,9.79-2.35c6.15-3.46,9.58-8.86,9.42-14.82-.17-6.24-4.27-11.94-11-15.23a16,16,0,0,0-7.16-1.65Z" transform="translate(-1.89 -1.78)" style="fill:#3c2415"/><g style="mix-blend-mode:multiply"><path d="M87.67,185.92c1.83,4.89,0,10.42-6.37,14-4.29,2.41-11.53,2.46-16.21-.65a12.55,12.55,0,0,0,.76,1.9c3.41,6.65,14,7.49,19.62,4.35C94.45,200.46,94.48,191.46,87.67,185.92Z" transform="translate(-1.89 -1.78)" style="fill:#c49a6c"/></g><path d="M215.34,204c-6.41,0-11.85-2.83-14.18-7.38a13.67,13.67,0,0,1,.62-13.62,17.82,17.82,0,0,1,14.65-8.39,13.75,13.75,0,0,1,6.13,1.4c5.9,2.91,9.52,7.85,9.66,13.21.14,5.07-2.86,9.71-8.23,12.73a18,18,0,0,1-8.65,2.05Z" transform="translate(-1.89 -1.78)" style="fill:#754c29"/><path d="M216.43,176.9a11.33,11.33,0,0,1,5.1,1.17c10.14,5,11.65,16,1.32,21.82a15.69,15.69,0,0,1-7.51,1.76c-4.85,0-9.94-1.88-12.11-6.12-4.7-9.16,4.31-18.63,13.2-18.63m0-4.65a20,20,0,0,0-16.64,9.51,15.94,15.94,0,0,0-.69,15.89c2.73,5.33,9,8.64,16.24,8.64a20.28,20.28,0,0,0,9.79-2.35c6.14-3.45,9.58-8.85,9.41-14.81-.17-6.24-4.26-11.94-10.95-15.23a16.11,16.11,0,0,0-7.16-1.65Z" transform="translate(-1.89 -1.78)" style="fill:#3c2415"/><g style="mix-blend-mode:multiply"><path d="M226.17,181.32c2.35,5.07.64,11-6,14.75-4.63,2.6-12.7,2.46-17.28-1.44.13.3.21.6.37.9,3.41,6.66,14,7.5,19.62,4.36C231.3,195.14,231.82,186.89,226.17,181.32Z" transform="translate(-1.89 -1.78)" style="fill:#c49a6c"/></g><path d="M97.58,41.24c-9.29,0-17.3-4.61-20.41-11.74-3.86-8.89,4.88-18.68,11.71-23.09a16,16,0,0,1,8.7-2.31c6.52,0,13.57,2.89,17.55,7.18a14,14,0,0,1,3.42,11.3,22.12,22.12,0,0,1-8.44,15,21.75,21.75,0,0,1-12.53,3.66Z" transform="translate(-1.89 -1.78)" style="fill:#754c29"/><path d="M97.58,6.43c5.85,0,12.36,2.67,15.85,6.43,6,6.52,1.69,18.31-4.66,22.82a19.4,19.4,0,0,1-11.19,3.23c-7.48,0-15.3-3.51-18.28-10.34C76,21.05,84,12.32,90.14,8.36a13.7,13.7,0,0,1,7.44-1.93m0-4.65a18.34,18.34,0,0,0-10,2.68A36.12,36.12,0,0,0,77.3,14.6c-3.58,5.51-4.36,11-2.26,15.82,3.48,8,12.32,13.14,22.54,13.14a24.07,24.07,0,0,0,13.88-4.09,24.19,24.19,0,0,0,9.4-16.65,16.47,16.47,0,0,0-4-13.12C112.44,5,104.7,1.78,97.58,1.78Z" transform="translate(-1.89 -1.78)" style="fill:#3c2415"/><g style="mix-blend-mode:multiply"><path d="M113.43,12.86a16.52,16.52,0,0,0-2.82-2.37c2.5,6.63-1.41,15.58-6.75,19.38-6.49,4.62-17.38,4.23-24.3-.81,4.91,10.17,20.78,12.62,29.21,6.62C115.12,31.17,119.48,19.38,113.43,12.86Z" transform="translate(-1.89 -1.78)" style="fill:#c49a6c"/></g><path d="M233.33,150.79c-8.57,0-15.94-4.61-18.78-11.74-3.17-8,3.2-15.84,6.09-18.85a2.24,2.24,0,0,1,1.61-.69l.31,0,.25,0c.36.05.72.11,1.09.15h1l9.16-.38a33,33,0,0,0,8.1-2.58,2.28,2.28,0,0,1,2,.08,19.69,19.69,0,0,1,5.28,4.23c2.47,2.92,3.53,6.83,3.07,11.33-.59,5.68-3.67,11.58-7.67,14.69a18.84,18.84,0,0,1-11.59,3.7Z" transform="translate(-1.89 -1.78)" style="fill:#754c29"/><path d="M243.15,118.78a17.14,17.14,0,0,1,4.67,3.73c5.54,6.52,1.55,18.31-4.26,22.83a16.71,16.71,0,0,1-10.23,3.23c-6.84,0-14-3.51-16.71-10.35-2.26-5.66,1.33-12,5.63-16.48.51.07,1,.15,1.54.2H225l9.41-.39a35.61,35.61,0,0,0,8.79-2.77m0-4.45a4.41,4.41,0,0,0-1.88.42,30.84,30.84,0,0,1-7.41,2.37l-7.84.33-1.16,0H224c-.3,0-.6-.08-.89-.12l-.26,0a4.35,4.35,0,0,0-3.83,1.32c-6.74,7-9.12,14.75-6.55,21.21,3.18,8,11.36,13.14,20.84,13.14a21.13,21.13,0,0,0,13-4.17c4.51-3.5,7.85-9.87,8.51-16.21.52-5.11-.71-9.61-3.59-13a21.25,21.25,0,0,0-5.88-4.74,4.46,4.46,0,0,0-2.18-.57Z" transform="translate(-1.89 -1.78)" style="fill:#3c2415"/><g style="mix-blend-mode:multiply"><path d="M247.82,122.51a14.41,14.41,0,0,0-1.35-1.36c2.23,6.62-1.34,15.51-6.2,19.29-6.36,4.95-17.36,4.16-23.53-2,4.35,10.38,19,12.91,26.82,6.87C249.37,140.82,253.36,129,247.82,122.51Z" transform="translate(-1.89 -1.78)" style="fill:#c49a6c"/></g><path d="M46.25,131.43c-10,0-16.49-9.18-16.82-17.68-.31-8.18,4.83-13.88,13.1-14.52.39,0,.78,0,1.16,0,9.25,0,15.36,8.73,15.92,17.16.53,8.11-3.85,14-11.17,14.94a16.23,16.23,0,0,1-2.19.15Z" transform="translate(-1.89 -1.78)" style="fill:#754c29"/><path d="M43.69,101.51c14.48,0,19.64,25.45,4.44,27.47a13.41,13.41,0,0,1-1.88.13c-15.47,0-21.38-26.19-3.54-27.57l1,0m0-4.65c-.44,0-.89,0-1.34,0-9.48.73-15.6,7.54-15.24,16.93.37,9.58,7.79,19.91,19.14,19.91a19.3,19.3,0,0,0,2.5-.16c8.49-1.13,13.79-8.12,13.18-17.4-.63-9.5-7.63-19.33-18.24-19.33Z" transform="translate(-1.89 -1.78)" style="fill:#3c2415"/><g style="mix-blend-mode:multiply"><path d="M47.74,102.23c6.38,7.41,6.17,21.47-5,23a13.33,13.33,0,0,1-6.67-.79,13.39,13.39,0,0,0,12,4.59C61.81,127.16,59,106.37,47.74,102.23Z" transform="translate(-1.89 -1.78)" style="fill:#c49a6c"/></g><path d="M106.93,133a14.24,14.24,0,1,1-14.24-14.24A14.25,14.25,0,0,1,106.93,133Z" transform="translate(-1.89 -1.78)" style="fill:#3c2415"/><path d="M91,126.92a4.55,4.55,0,1,1-4.55-4.55A4.55,4.55,0,0,1,91,126.92Z" transform="translate(-1.89 -1.78)" style="fill:#fff"/><path d="M90.63,133.85a1.72,1.72,0,1,1-1.72-1.71A1.72,1.72,0,0,1,90.63,133.85Z" transform="translate(-1.89 -1.78)" style="fill:#fff"/><path d="M93.76,129.3a1.08,1.08,0,1,1-1.07-1.08A1.07,1.07,0,0,1,93.76,129.3Z" transform="translate(-1.89 -1.78)" style="fill:#fff"/><path d="M182.19,133A14.24,14.24,0,1,1,168,118.75,14.25,14.25,0,0,1,182.19,133Z" transform="translate(-1.89 -1.78)" style="fill:#3c2415"/><path d="M166.21,126.92a4.55,4.55,0,1,1-4.55-4.55A4.55,4.55,0,0,1,166.21,126.92Z" transform="translate(-1.89 -1.78)" style="fill:#fff"/><path d="M165.89,133.85a1.72,1.72,0,1,1-1.71-1.71A1.72,1.72,0,0,1,165.89,133.85Z" transform="translate(-1.89 -1.78)" style="fill:#fff"/><path d="M169,129.3a1.07,1.07,0,1,1-1.07-1.08A1.07,1.07,0,0,1,169,129.3Z" transform="translate(-1.89 -1.78)" style="fill:#fff"/><path d="M160.28,117.79s11.39,4.26,19.73-5.11" transform="translate(-1.89 -1.78)" style="fill:none;stroke:#3c2415;stroke-linecap:round;stroke-linejoin:round;stroke-width:2.5559600000000002px"/><path d="M96.49,108.59s-11.38-4.26-19.73,5.11" transform="translate(-1.89 -1.78)" style="fill:none;stroke:#3c2415;stroke-linecap:round;stroke-linejoin:round;stroke-width:2.5559600000000002px"/><path d="M131.05,155.55c-3.58,0-6.39-4.47-6.39-10.18s2.81-10.18,6.39-10.18,6.39,4.48,6.39,10.18S134.63,155.55,131.05,155.55Z" transform="translate(-1.89 -1.78)" style="fill:#f04e4c"/><path d="M131.05,136.47c2.82,0,5.11,4,5.11,8.9s-2.29,8.91-5.11,8.91-5.11-4-5.11-8.91,2.29-8.9,5.11-8.9m0-2.55c-4.37,0-7.67,4.92-7.67,11.45s3.3,11.46,7.67,11.46,7.67-4.92,7.67-11.46-3.3-11.45-7.67-11.45Z" transform="translate(-1.89 -1.78)" style="fill:#3c2415"/><path d="M135.66,142.82a1.26,1.26,0,0,1-.57-.14,10.66,10.66,0,0,0-4.72-1.09,10.51,10.51,0,0,0-3.33.53,1.18,1.18,0,0,1-.41.07,1.25,1.25,0,0,1-.9-.38,1.27,1.27,0,0,1-.31-1.31c1.11-3.32,3.22-5.31,5.63-5.31,2.59,0,4.82,2.3,5.84,6a1.28,1.28,0,0,1-.42,1.32A1.23,1.23,0,0,1,135.66,142.82Z" transform="translate(-1.89 -1.78)" style="fill:#fff"/><path d="M131.05,136.47c2,0,3.79,2.07,4.61,5.07a12,12,0,0,0-9-.63c.89-2.65,2.53-4.44,4.42-4.44m0-2.55c-3,0-5.55,2.31-6.84,6.18a2.56,2.56,0,0,0,.61,2.62,2.59,2.59,0,0,0,1.81.75,2.51,2.51,0,0,0,.81-.14,9.55,9.55,0,0,1,7.08.49,2.55,2.55,0,0,0,1.14.27,2.52,2.52,0,0,0,1.62-.58,2.55,2.55,0,0,0,.84-2.65c-1.18-4.28-3.88-6.94-7.07-6.94Z" transform="translate(-1.89 -1.78)" style="fill:#3c2415"/><path d="M212.22,37.56c-2.44,0-10.59-.4-13.32-5.44-.91-1.69-1.48-4.48,1-8.23A20.4,20.4,0,0,1,203,20.34a12,12,0,0,0,2.78-3.4c.16-.32.28-.64.41-1,.63-1.55,1.68-4.15,5.2-4.15a8.86,8.86,0,0,1,1.89.22c4.54,1,5.5,5.22,6.15,8l0,.16c.54,2.34.83,2.63,1.89,3.7a28.42,28.42,0,0,1,2.07,2.3c2.32,2.87,1.75,5.22,1.2,6.37C222.88,36.26,217.07,37.56,212.22,37.56Z" transform="translate(-1.89 -1.78)" style="fill:#fac770"/><path d="M211.39,14.16a7.15,7.15,0,0,1,1.4.17c3.15.68,3.81,3.83,4.41,6.43,1,4.26,1.79,3.69,4.41,6.93,3.91,4.84-2.59,7.54-9.39,7.54-7.31,0-14.95-3.12-10.4-10.06,1.88-2.88,4.51-4.06,6.05-7.21.9-1.84,1.08-3.8,3.52-3.8m0-4.64h0c-5.09,0-6.73,4.07-7.35,5.6-.12.3-.24.58-.35.8a10,10,0,0,1-2.3,2.74,22.39,22.39,0,0,0-3.46,4c-3.24,4.95-2.06,8.77-1.07,10.61,2.25,4.16,8,6.65,15.36,6.65,2.7,0,11.72-.45,14.5-6.27.63-1.32,1.75-4.82-1.49-8.83A28.41,28.41,0,0,0,223,22.31c-.87-.88-.88-.89-1.28-2.6l0-.15c-.68-3-1.94-8.48-7.92-9.77a11.43,11.43,0,0,0-2.38-.27Z" transform="translate(-1.89 -1.78)" style="fill:#3c2415"/><g style="mix-blend-mode:multiply"><path d="M221.61,27.69c-2.62-3.24-3.43-2.67-4.41-6.93-.6-2.6-1.26-5.75-4.41-6.43-2.12-.45-3.08.06-3.69,1,1.86,1.22,2.41,3.67,2.9,5.78,1,4.26,1.79,3.69,4.41,6.93,3.08,3.83-.34,6.31-5.26,7.19C218.31,35.51,225.72,32.78,221.61,27.69Z" transform="translate(-1.89 -1.78)" style="fill:#fac770"/></g><path d="M241.7,80.7c-4.68,0-12.2-2.85-13.81-7.5-.51-1.46-.85-4.31,2.6-7a15.19,15.19,0,0,1,3.15-1.85,8.16,8.16,0,0,0,2.58-1.62c.18-.18.33-.36.49-.54A4.83,4.83,0,0,1,240.48,60a5.59,5.59,0,0,1,2.9.91c3.3,1.94,3,5.52,2.74,7.66v.12a3.6,3.6,0,0,0,.4,2.72,21.74,21.74,0,0,1,1,2.16,5.05,5.05,0,0,1-.33,4.86C246.41,79.48,244.89,80.7,241.7,80.7Z" transform="translate(-1.89 -1.78)" style="fill:#fac770"/><path d="M240.48,62.34a3.44,3.44,0,0,1,1.72.59c2.06,1.21,1.79,3.59,1.6,5.56-.31,3.23.4,3,1.48,5.92s-.81,4-3.58,4c-6,0-16.16-5.34-9.77-10.39,2-1.59,4.14-1.8,5.95-3.66.89-.91,1.45-2,2.6-2m0-4.65h0a7.14,7.14,0,0,0-5.54,3c-.12.14-.24.29-.38.43a6.34,6.34,0,0,1-1.92,1.14,18.19,18.19,0,0,0-3.6,2.12c-4.74,3.76-3.92,8-3.35,9.62,2.06,5.92,10.62,9.07,16,9.07,4.2,0,6.31-1.77,7.34-3.26a7.34,7.34,0,0,0,.6-7,24.48,24.48,0,0,0-1-2.38c-.07-.15-.17-.34-.21-.45a6,6,0,0,1,0-1l0-.11c.2-2.16.69-7.2-3.88-9.89a7.93,7.93,0,0,0-4.08-1.24Z" transform="translate(-1.89 -1.78)" style="fill:#3c2415"/><g style="mix-blend-mode:multiply"><path d="M245.28,74.41c-1.08-2.9-1.79-2.69-1.48-5.92.19-2,.46-4.35-1.6-5.56-1.39-.82-2.19-.68-2.84-.18,1,1.29.85,3.15.69,4.75-.3,3.23.4,3,1.49,5.92,1.28,3.42-1.71,4.37-5.39,3.83C241.12,79.14,247,79,245.28,74.41Z" transform="translate(-1.89 -1.78)" style="fill:#fac770"/></g><path d="M257.36,35.58c-3.11,0-8.27-1.88-9.45-5.28-.32-.91-.77-3.25,1.9-5.37A10.62,10.62,0,0,1,252,23.68a4.71,4.71,0,0,0,1.37-.84l.26-.29a3.87,3.87,0,0,1,3-1.65,4.44,4.44,0,0,1,2.26.69c2.54,1.5,2.26,4.29,2.13,5.63-.07.82-.07.82.16,1.3a13.62,13.62,0,0,1,.63,1.44,4,4,0,0,1-.31,3.83A4.64,4.64,0,0,1,257.36,35.58Z" transform="translate(-1.89 -1.78)" style="fill:#fac770"/><path d="M256.6,23.22a2.22,2.22,0,0,1,1.08.37c1.28.76,1.11,2.24,1,3.48-.2,2,.25,1.88.92,3.7s-.51,2.48-2.24,2.48c-3.74,0-10.1-3.34-6.11-6.5,1.25-1,2.59-1.12,3.73-2.28.55-.57.9-1.25,1.62-1.25m0-4.64A6.2,6.2,0,0,0,251.81,21l-.16.18a6.79,6.79,0,0,1-.7.36,12.41,12.41,0,0,0-2.58,1.53c-2.66,2.11-3.66,5.08-2.66,8,1.62,4.67,7.91,6.84,11.65,6.84a6.91,6.91,0,0,0,6-2.79,6.29,6.29,0,0,0,.58-6c-.26-.68-.5-1.18-.67-1.53,0,0,0-.07,0-.1v-.06c.15-1.54.54-5.61-3.27-7.86a6.75,6.75,0,0,0-3.44-1Z" transform="translate(-1.89 -1.78)" style="fill:#3c2415"/><g style="mix-blend-mode:multiply"><path d="M259.6,30.77c-.67-1.82-1.12-1.68-.92-3.7.11-1.24.28-2.72-1-3.48-.87-.51-1.37-.43-1.77-.11a4.14,4.14,0,0,1,.43,3c-.2,2,.25,1.89.92,3.7.8,2.14-1.07,2.73-3.37,2.4C257,33.73,260.67,33.61,259.6,30.77Z" transform="translate(-1.89 -1.78)" style="fill:#fac770"/></g></g></g></svg>