<?xml version="1.0" encoding="utf-8"?>
<!-- Generator: Adobe Illustrator 23.0.3, SVG Export Plug-In . SVG Version: 6.00 Build 0)  -->
<svg version="1.1" id="Layer_1" xmlns="http://www.w3.org/2000/svg" xmlns:xlink="http://www.w3.org/1999/xlink" x="0px" y="0px"
	 viewBox="0 0 512 512" style="enable-background:new 0 0 512 512;" xml:space="preserve">
<style type="text/css">
	.st0{display:none;}
	.st1{fill:#9023E0;}
	.st2{fill:#FF9900;}
</style>
<path class="st0" d="M424.6,504.4l79.8-79.8c4-4,4-10.4,0-14.4l-79.8-79.8c-4-4-10.4-4-14.4,0l-13.8,13.8c-4,4-4,10.4,0,14.4
	l21.3,21.3c6.4,6.4,1.9,17.4-7.2,17.4h-56c-29.2,0-56.8-12.6-75.9-34.7l-67.9-78.3c-6.6-7.6-13.9-14.4-21.8-20.4
	c-5.4-4.1-5.4-12.3,0.1-16.3c7.8-5.8,15.1-12.5,21.5-20l68-78.5c19.1-22,46.8-34.7,75.9-34.7h56c9.1,0,13.6,11,7.2,17.4l-21.4,21.4
	c-4,4-4,10.4,0,14.4l13.8,13.8c4,4,10.4,4,14.4,0l79.8-79.8c4-4,4-10.4,0-14.4L424.6,7.6c-4-4-10.4-4-14.4,0l-13.8,13.8
	c-4,4-4,10.4,0,14.4l21.3,21.3c6.4,6.4,1.9,17.4-7.2,17.4h-56c-40.8,0-79.4,17.7-106.1,48.5l-68,78.5c-18.6,21.5-46.2,33.9-75.5,34
	h-95c-5.6,0-10.2,4.6-10.2,10.2v19.6c0,5.6,4.6,10.2,10.2,10.2h94.7c28.9,0,56.5,12.8,75.9,35.2l67.9,78.3
	c26.7,30.8,65.4,48.4,106.1,48.4h56c9.1,0,13.6,11,7.2,17.4l-21.4,21.4c-4,4-4,10.4,0,14.4l13.8,13.8
	C414.2,508.4,420.6,508.4,424.6,504.4z"/>
<path class="st1" d="M210.5,227.7l68-78.5c19.1-22,46.8-34.7,75.9-34.7h56c9.1,0,13.6,11,7.2,17.4l-21.4,21.4c-4,4-4,10.4,0,14.4
	l13.8,13.8c4,4,10.4,4,14.4,0l79.8-79.8c4-4,4-10.4,0-14.4L424.6,7.6c-4-4-10.4-4-14.4,0l-13.8,13.8c-4,4-4,10.4,0,14.4l21.3,21.3
	c6.4,6.4,1.9,17.4-7.2,17.4h-56c-40.8,0-79.4,17.7-106.1,48.5l-68,78.5c-18.6,21.5-46.2,33.9-75.5,34h-95c-5.6,0-10.2,4.6-10.2,10.2
	v19.6c0,5.6,4.6,10.2,10.2,10.2h94.7c3.4,0,58.4-1.2,86.8-29.6C198.2,240.5,204.7,234.5,210.5,227.7z"/>
<path class="st2" d="M424.6,330.4c-4-4-10.4-4-14.4,0l-13.8,13.8c-4,4-4,10.4,0,14.4l21.3,21.3c6.4,6.4,1.9,17.4-7.2,17.4h-56
	c-29.2,0-56.8-12.6-75.9-34.7l-67.9-78.3c-6.6-7.6-13.9-14.4-21.8-20.4c-0.6-0.5-1.1-1-1.6-1.5c-11.1,6.4-27,14.1-46.7,19.8
	c15.1,5.9,28.8,15.6,39.8,28.3l67.9,78.3c26.7,30.8,65.4,48.4,106.1,48.4h56c9.1,0,13.6,11,7.2,17.4L396.2,476c-4,4-4,10.4,0,14.4
	l13.8,13.8c4,4,10.4,4,14.4,0l79.8-79.8c4-4,4-10.4,0-14.4L424.6,330.4z"/>
<path class="st2" d="M258.4,429.3h-41.2v-41.2c0-4.2-3.4-7.6-7.6-7.6h-13.2c-4.2,0-7.6,3.4-7.6,7.6v41.2h-41.2
	c-4.2,0-7.6,3.4-7.6,7.6v13.2c0,4.2,3.4,7.6,7.6,7.6h41.2v41.2c0,4.2,3.4,7.6,7.6,7.6h13.2c4.2,0,7.6-3.4,7.6-7.6v-41.2h41.2
	c4.2,0,7.6-3.4,7.6-7.6V437C266,432.8,262.6,429.3,258.4,429.3z"/>
<g id="Layer_2">
</g>
</svg>
