<?xml version="1.0" encoding="utf-8"?>
<!-- Generator: Adobe Illustrator 23.0.3, SVG Export Plug-In . SVG Version: 6.00 Build 0)  -->
<svg version="1.1" id="Layer_1" xmlns="http://www.w3.org/2000/svg" xmlns:xlink="http://www.w3.org/1999/xlink" x="0px" y="0px"
	 viewBox="0 0 767.1 258.2" style="enable-background:new 0 0 767.1 258.2;" xml:space="preserve">
<style type="text/css">
	.st0{display:none;}
	.st1{fill:#FF9900;}
	.st2{fill:#9023E0;}
</style>
<path class="st0" d="M552.2,331.7l79.8-79.8c4-4,4-10.4,0-14.4l-79.8-79.8c-4-4-10.4-4-14.4,0L524,171.5c-4,4-4,10.4,0,14.4
	l21.3,21.3c6.4,6.4,1.9,17.4-7.2,17.4h-56c-29.2,0-56.8-12.6-75.9-34.7l-67.9-78.3c-6.6-7.6-13.9-14.4-21.8-20.4
	c-5.4-4.1-5.4-12.3,0.1-16.3c7.8-5.8,15.1-12.5,21.5-20l68-78.5c19.1-22,46.8-34.7,75.9-34.7h56c9.1,0,13.6,11,7.2,17.4l-21.4,21.4
	c-4,4-4,10.4,0,14.4l13.8,13.8c4,4,10.4,4,14.4,0l79.8-79.8c4-4,4-10.4,0-14.4l-79.6-79.6c-4-4-10.4-4-14.4,0L524-151.3
	c-4,4-4,10.4,0,14.4l21.3,21.3c6.4,6.4,1.9,17.4-7.2,17.4h-56c-40.8,0-79.4,17.7-106.1,48.5l-68,78.5c-18.6,21.5-46.2,33.9-75.5,34
	h-95c-5.6,0-10.2,4.6-10.2,10.2v19.6c0,5.6,4.6,10.2,10.2,10.2h94.7c28.9,0,56.5,12.8,75.9,35.2l67.9,78.3
	c26.7,30.8,65.4,48.4,106.1,48.4h56c9.1,0,13.6,11,7.2,17.4l-21.4,21.4c-4,4-4,10.4,0,14.4l13.8,13.8
	C541.8,335.7,548.2,335.7,552.2,331.7z"/>
<g>
	<path class="st1" d="M628.6,73.9l48.7,42.2c13.7,11.9,21.5,29.1,21.5,47.1v34.8c0,5.7-6.8,8.4-10.8,4.5l-13.3-13.3
		c-2.5-2.5-6.5-2.5-8.9,0l-8.6,8.6c-2.5,2.5-2.5,6.5,0,8.9l49.5,49.5c2.5,2.5,6.5,2.5,8.9,0l49.5-49.4c2.5-2.5,2.5-6.5,0-8.9
		l-8.6-8.6c-2.5-2.5-6.5-2.5-8.9,0l-13.2,13.2c-4,4-10.8,1.2-10.8-4.5v-34.8c0-25.3-11-49.3-30.1-65.9l-48.7-42.2
		c-13.3-11.5-21-28.7-21.1-46.9v-2c0-3.5-2.9-6.3-6.3-6.3h-12.2c-3.5,0-6.3,2.9-6.3,6.3v1.8c0,2.1,0.7,36.3,18.4,53.9
		C620.7,66.3,624.4,70.3,628.6,73.9z"/>
</g>
<g>
	<path class="st2" d="M149.8,62.1c17.6-17.6,18.4-51.8,18.4-53.9V6.3c0-3.5-2.9-6.3-6.3-6.3l-12.2,0c-3.5,0-6.3,2.9-6.3,6.3v2
		c-0.1,18.2-7.8,35.3-21.1,46.9L73.5,97.5C54.4,114,43.4,138,43.4,163.3v34.8c0,5.7-6.8,8.4-10.8,4.5l-13.2-13.2
		c-2.5-2.5-6.5-2.5-8.9,0l-8.6,8.6c-2.5,2.5-2.5,6.5,0,8.9l49.5,49.4c2.5,2.5,6.5,2.5,8.9,0l49.5-49.5c2.5-2.5,2.5-6.5,0-8.9
		l-8.6-8.6c-2.5-2.5-6.5-2.5-8.9,0L79,202.5c-4,4-10.8,1.2-10.8-4.5v-34.8c0-18.1,7.9-35.3,21.5-47.1l48.7-42.2
		C142.7,70.3,146.5,66.3,149.8,62.1z"/>
</g>
</svg>
