<svg fill="none" height="20" viewBox="0 0 140 20" width="140" xmlns="http://www.w3.org/2000/svg"><g fill="#c3c5c7"><path d="m0 .37889v19.32341h3.88877v-8.5792h4.5369v8.5792h3.88873v-19.32341h-3.88873v7.38836h-4.5369v-7.38836z"/><path d="m23.0535 12.4222-1.8634-8.68742h-.054l-1.8634 8.68742zm.5131-12.04331 5.104 19.32341h-4.0508l-.8912-4.0866h-5.131l-.8912 4.0866h-4.0508l5.104-19.32341z"/><path d="m40.7869.37889h-10.7751v19.32341h11.0452v-3.1935h-7.1564v-5.1962h6.4813v-3.19352h-6.4813v-4.54668h6.8863z"/><path d="m51.25 6.90122h3.8888c0-.70365-.054-1.45242-.162-2.24628-.0901-.81191-.3331-1.56067-.7292-2.24628-.3961-.70365-.9992-1.28101-1.8093-1.732069-.7922-.451061-1.8814-.676591-3.2677-.676591-1.4583 0-2.6195.252594-3.4837.757781-.8641.487149-1.5303 1.172759-1.9984 2.056839-.4501.88407-.7471 1.94857-.8911 3.1935-.1261 1.22688-.1891 2.57104-.1891 4.03248 0 1.4795.063 2.8327.1891 4.0595.144 1.2269.441 2.2824.8911 3.1665.4681.8841 1.1343 1.5606 1.9984 2.0297.8642.4692 2.0254.7037 3.4837.7037 1.2783 0 2.3135-.1985 3.1056-.5954.8102-.3969 1.4313-.9472 1.8634-1.6509.4501-.7036.7561-1.5246.9182-2.4628.162-.9382.243-1.9305.243-2.977h-3.8887c0 1.0465-.0631 1.8945-.1891 2.544-.126.6315-.297 1.1277-.5131 1.4885-.216.3428-.4771.5774-.7831.7037-.2881.1082-.6032.1624-.9452.1624-.4141 0-.7832-.0812-1.1072-.2436-.3061-.1804-.5671-.5142-.7832-1.0014-.198-.5052-.3511-1.2088-.4591-2.1109-.09-.9022-.135-2.0839-.135-3.5454 0-1.37119.036-2.5259.108-3.46411.072-.95625.198-1.72305.3781-2.3004.18-.5954.4231-1.0194.7291-1.27199.3241-.27064.7292-.40596 1.2153-.40596.8821 0 1.4853.32477 1.8093.97429.3421.63149.5131 1.65088.5131 3.05819z"/><path d="m57.5182.37889v19.32341h3.8888v-8.5792h4.5369v8.5792h3.8888v-19.32341h-3.8888v7.38836h-4.5369v-7.38836z"/><path d="m72.7132 19.7023h3.8887v-19.32341h-3.8887z"/><path d="m85.4163 19.7023h10.7751v-3.1935h-6.8864v-16.12991h-3.8887z"/><path d="m105.964 12.4222-1.863-8.68742h-.054l-1.863 8.68742zm.514-12.04331 5.104 19.32341h-4.051l-.891-4.0866h-5.131l-.892 4.0866h-4.0505l5.1045-19.32341z"/><path d="m116.811 16.8336v-5.8187h1.675c.432 0 .828.0451 1.188.1353s.666.2526.918.4872c.27.2165.477.5142.621.893.162.3609.243.821.243 1.3803 0 1.1186-.288 1.8854-.864 2.3004s-1.332.6225-2.268.6225zm0-8.52507v-5.0609h1.405c.972 0 1.683.18945 2.133.56834s.675 1.02842.675 1.94858-.252 1.57871-.756 1.97564c-.486.37889-1.269.56834-2.349.56834zm-3.888-7.92964v19.32341h6.562c1.134 0 2.079-.1534 2.836-.4601.774-.3067 1.395-.7127 1.863-1.2178.486-.5233.828-1.1277 1.026-1.8133s.297-1.4073.297-2.1651c0-1.299-.315-2.3365-.945-3.1123s-1.485-1.23591-2.565-1.38025v-.05412c.972-.27064 1.701-.77583 2.187-1.51557.486-.75778.729-1.6599.729-2.70636 0-.92016-.135-1.69598-.405-2.32747-.27-.63148-.648-1.13667-1.134-1.51556s-1.071-.649525-1.756-.811907c-.666-.162382-1.395-.243573-2.187-.243573z"/><path d="m131.061 13.6671h-3.889v.7849c0 1.7862.469 3.1574 1.405 4.1136.954.9563 2.529 1.4344 4.726 1.4344 2.106 0 3.744-.4601 4.915-1.3802 1.188-.9382 1.782-2.4267 1.782-4.4655 0-.5954-.054-1.1367-.162-1.6239-.108-.4871-.306-.9291-.594-1.3261-.27-.4149-.639-.7938-1.107-1.1366-.468-.36089-1.072-.70369-1.81-1.02846l-2.997-1.29905c-.828-.3428-1.369-.71267-1.621-1.10961-.252-.41497-.378-.92016-.378-1.51556 0-.28868.027-.56833.081-.83897.072-.27064.189-.50519.351-.70365.18-.21651.414-.38792.703-.51421.288-.1263.648-.18945 1.08-.18945.756 0 1.296.2526 1.62.75778.324.48715.486 1.1908.486 2.11096h3.727v-.54127c0-.92016-.153-1.705-.459-2.35453-.288-.66757-.702-1.20884-1.242-1.62382-.523-.433015-1.153-.739736-1.891-.920159-.72-.1984675-1.512-.297701-2.376-.297701-1.855 0-3.313.469102-4.375 1.40731-1.062.9382-1.593 2.36355-1.593 4.27605 0 .79386.099 1.49752.297 2.11096.198.5954.504 1.12765.918 1.59675.432.45106.963.84803 1.593 1.19083s1.377.6585 2.242.9472c.648.2165 1.188.433 1.62.6495.45.1985.81.424 1.08.6766s.459.5413.567.866c.126.3068.189.6766.189 1.1097 0 .8119-.243 1.4163-.729 1.8132-.468.3789-.999.5684-1.593.5684-.504 0-.927-.0722-1.27-.2166-.324-.1443-.585-.3428-.783-.5954-.198-.2525-.333-.5593-.405-.9201-.072-.3789-.108-.7939-.108-1.2449z"/></g></svg>