<?xml version="1.0" encoding="utf-8"?>
<!-- Generator: Adobe Illustrator 23.0.3, SVG Export Plug-In . SVG Version: 6.00 Build 0)  -->
<svg version="1.1" id="Layer_1" xmlns="http://www.w3.org/2000/svg" xmlns:xlink="http://www.w3.org/1999/xlink" x="0px" y="0px"
	 viewBox="0 0 314.3 89.6" style="enable-background:new 0 0 314.3 89.6;" xml:space="preserve">
<style type="text/css">
	.st0{fill:#FFFFFF;}
	.st1{fill:#FDB515;}
	.st2{fill:#F68720;}
	.st3{fill:#F16025;}
</style>
<title>Asset 2@2x</title>
<g>
	<g id="Layer_1-2">
		<path class="st0" d="M105.4,81.5c-0.1-2.2,1.6-4,3.7-4.1c0,0,0.1,0,0.1,0c1.3,0,2.4,0.7,3,1.8v-7.5h1.3v13.8h-1.3v-1.7
			c-0.6,1.2-1.8,1.9-3.1,1.9C107,85.6,105.3,83.7,105.4,81.5C105.4,81.5,105.4,81.5,105.4,81.5z M112.3,81.5c0.1-1.5-1-2.8-2.6-2.9
			c-0.1,0-0.2,0-0.3,0c-1.6,0.3-2.7,1.8-2.4,3.5c0.2,1.2,1.2,2.2,2.4,2.4c1.5,0,2.8-1.2,2.8-2.7C112.3,81.7,112.3,81.6,112.3,81.5z"
			/>
		<path class="st0" d="M116.2,74.3c0.2-0.5,0.7-0.8,1.2-0.7c0.3,0.1,0.6,0.4,0.7,0.7c-0.2,0.5-0.7,0.8-1.2,0.7
			C116.5,74.9,116.3,74.6,116.2,74.3z M116.5,77.5h1.3v7.9h-1.3V77.5z"/>
		<path class="st0" d="M121.2,78.7h-1.3v-1.1h1.3v-3.2c0-1.8,0.9-2.6,2.2-2.6c0.8-0.1,1.5,0.2,2,0.8l-0.9,0.8
			c-0.2-0.3-0.6-0.5-1-0.5c-0.6,0-1,0.3-1,1.3v3.2h3.6v-3.6c0-1.8,0.9-2.6,2.2-2.6c0.8,0,1.6,0.3,2,1l-0.9,0.8
			c-0.2-0.4-0.6-0.6-1-0.6c-0.6,0-1,0.3-1,1.3v3.6h2.1v1.1h-2.1v6.8h-1.3v-6.8h-3.6v6.8h-1.3V78.7z"/>
		<path class="st0" d="M135.2,84.5c1,0,1.9-0.4,2.5-1.1l0.8,0.8c-0.8,0.9-2.1,1.4-3.3,1.4c-2.3,0.1-4.2-1.8-4.2-4
			c-0.1-2.3,1.8-4.2,4-4.2l0,0c2.6,0,4.1,2,4,4.6h-6.8C132.3,83.5,133.6,84.6,135.2,84.5C135.1,84.5,135.1,84.5,135.2,84.5z
			 M137.6,80.9c0-1.4-1.2-2.5-2.5-2.4c0,0-0.1,0-0.1,0c-1.4,0-2.6,1-2.7,2.4L137.6,80.9z"/>
		<path class="st0" d="M141.3,77.6h1.3v1.6c0.3-1,1.3-1.7,2.3-1.7c0.5,0,1,0.1,1.4,0.4l-0.5,1.2c-0.3-0.2-0.7-0.3-1.1-0.3
			c-1.1,0-2.1,0.8-2.1,2.7v4.2h-1.3L141.3,77.6z"/>
		<path class="st0" d="M151.7,84.5c1,0,1.9-0.4,2.5-1.1l0.8,0.8c-0.8,0.9-2.1,1.4-3.3,1.4c-2.3,0.1-4.2-1.8-4.2-4
			c-0.1-2.3,1.8-4.2,4-4.2l0,0c2.6,0,4.1,2,4,4.6h-6.8C148.9,83.5,150.2,84.6,151.7,84.5C151.7,84.5,151.7,84.5,151.7,84.5z
			 M154.2,80.9c0-1.4-1.1-2.5-2.5-2.4c0,0-0.1,0-0.1,0c-1.4,0-2.6,1-2.7,2.4H154.2z"/>
		<path class="st0" d="M157.8,77.6h1.3v1.6c0.5-1.1,1.6-1.8,2.9-1.8c1.8,0,3,1.2,3,3.3v4.8h-1.4v-4.7c0-1.4-0.6-2.2-2-2.2
			c-1.3-0.1-2.4,0.9-2.5,2.2c0,0.1,0,0.2,0,0.3v4.4h-1.3L157.8,77.6z"/>
		<path class="st0" d="M168.1,83.1v-4.4h-1.2v-1.1h1.2v-4.1h1.3v4.1h2.2v1.1h-2.2v4.4c0,1.1,0.4,1.4,0.9,1.4c0.4,0,0.8-0.2,1.1-0.5
			l0.7,0.8c-0.5,0.5-1.2,0.8-1.9,0.8C169,85.7,168.1,85,168.1,83.1z"/>
		<path class="st0" d="M179.2,83.8v1.7h-1.3V71.6h1.3v7.5c0.6-1.1,1.7-1.8,3-1.8c2.3,0.2,4,2.1,3.8,4.4c-0.1,2.1-1.8,3.7-3.8,3.8
			C180.9,85.6,179.8,84.9,179.2,83.8z M184.7,81.5c0.1-1.5-1-2.8-2.5-2.9c-0.1,0-0.2,0-0.3,0c-1.7-0.1-3.1,1.1-3.2,2.7
			c-0.1,1.7,1.1,3.1,2.7,3.2c1.7,0.1,3.1-1.1,3.2-2.7C184.7,81.7,184.7,81.6,184.7,81.5L184.7,81.5z"/>
		<path class="st0" d="M190.7,84.8l-3.4-7.3h1.5l2.2,4.9c0.2,0.4,0.3,0.9,0.4,1.3c0.1-0.5,0.2-0.9,0.4-1.3l2.1-4.9h1.4l-5.2,12h-1.4
			L190.7,84.8z"/>
		<path class="st0" d="M200.5,81.5c-0.1-2.2,1.6-4,3.7-4.1c0,0,0.1,0,0.1,0c1.3,0,2.4,0.7,3,1.8v-7.5h1.3v13.8h-1.3v-1.7
			c-0.6,1.2-1.8,1.9-3.1,1.9C202.1,85.6,200.4,83.7,200.5,81.5C200.5,81.5,200.5,81.5,200.5,81.5z M207.4,81.5
			c0.1-1.5-1-2.8-2.6-2.9c-0.1,0-0.2,0-0.3,0c-1.6,0.3-2.7,1.8-2.4,3.5c0.2,1.2,1.2,2.2,2.4,2.4c1.5,0,2.8-1.2,2.8-2.7
			C207.4,81.7,207.4,81.6,207.4,81.5L207.4,81.5z"/>
		<path class="st0" d="M215.3,84.5c1,0,1.9-0.4,2.5-1.1l0.8,0.8c-0.8,0.9-2.1,1.4-3.3,1.4c-2.3,0.1-4.2-1.8-4.2-4
			c-0.1-2.3,1.8-4.2,4-4.2l0,0c2.6,0,4.1,2,4,4.6h-6.8C212.5,83.5,213.8,84.6,215.3,84.5C215.3,84.5,215.3,84.5,215.3,84.5z
			 M217.8,80.9c0-1.4-1.1-2.5-2.5-2.4c0,0-0.1,0-0.1,0c-1.4,0-2.6,1-2.7,2.4H217.8z"/>
		<path class="st0" d="M221.8,78.7h-1.3v-1.1h1.3V74c0-1.8,0.9-2.6,2.2-2.6c0.8,0,1.6,0.3,2,1l-0.9,0.8c-0.2-0.4-0.6-0.6-1-0.6
			c-0.6,0-1,0.3-1,1.3v3.6h2.1v1.1h-2.1v6.8h-1.3L221.8,78.7z"/>
		<path class="st0" d="M232.2,80.6c0-1.5-0.7-2.1-1.9-2.1c-0.9,0-1.8,0.4-2.3,1.2l-0.8-0.8c0.8-1,2-1.6,3.2-1.5
			c1.6-0.1,3,1.1,3.1,2.7c0,0.2,0,0.4,0,0.5v4.9h-1.3l0.1-1.2c-0.6,0.9-1.6,1.4-2.6,1.3c-1.7,0-2.9-0.8-2.9-2.4s1.3-2.4,3-2.4h2.5
			L232.2,80.6z M229.8,81.8c-1,0-1.8,0.4-1.8,1.3s0.7,1.4,1.9,1.4s2.3-0.7,2.3-1.7v-1L229.8,81.8z"/>
		<path class="st0" d="M236.1,82.4v-4.9h1.3v4.7c0,1.4,0.6,2.2,2,2.2c1.3,0.1,2.4-0.9,2.5-2.2c0-0.1,0-0.2,0-0.3v-4.4h1.3v7.9h-1.3
			v-1.6c-0.5,1.1-1.6,1.8-2.8,1.8c-1.6,0-2.9-1.2-3-2.8C236.1,82.7,236.1,82.6,236.1,82.4z"/>
		<path class="st0" d="M246.1,71.6h1.3v13.8h-1.3V71.6z"/>
		<path class="st0" d="M250.9,83.1v-4.4h-1.2v-1.1h1.2v-4.1h1.3v4.1h2.2v1.1h-2.2v4.4c0,1.1,0.4,1.4,0.9,1.4c0.4,0,0.8-0.2,1.1-0.5
			l0.7,0.8c-0.5,0.5-1.2,0.8-1.9,0.8C251.8,85.7,250.9,85,250.9,83.1z"/>
		
			<rect x="23.5" y="38.3" transform="matrix(0.7071 -0.7071 0.7071 0.7071 -18.2664 43.2624)" class="st1" width="39.2" height="10.8"/>
		<polygon class="st2" points="25.4,53.7 30.1,26 37.8,33.7 33.1,61.3 		"/>
		<polygon class="st2" points="53.1,26 60.8,33.7 56.1,61.3 48.4,53.7 		"/>
		<path class="st0" d="M191.4,36.5l3.6-10l3.5,10c0.4,1.4,0.8,2.5,1.1,3.4l9.2,25.7h10.7L196.5,1.5h-3.1l-11.1,30.7l-0.1,0.3
			l-11.9,33.1h10.7l9.2-25.7C190.6,39,191,37.9,191.4,36.5z"/>
		<rect x="227.7" y="2" class="st0" width="11.3" height="63.5"/>
		<path class="st0" d="M283,1.2c-17.3,0-31.3,14.4-31.3,32.2s14,32.2,31.3,32.2s31.3-14.4,31.3-32.2S300.3,1.2,283,1.2z M283,54.8
			c-11.5,0-20.9-9.6-20.9-21.5s9.4-21.5,20.9-21.5s20.9,9.6,20.9,21.5S294.5,54.8,283,54.8z"/>
		<path class="st3" d="M37.8,33.7L30.1,26L8.2,47.9c0.2,4.2,1.2,8.4,3,12.2L37.8,33.7z"/>
		<path class="st3" d="M48.4,53.7l7.6,7.6l23.6-23.6c-0.2-4.4-1.8-8-3.5-11.7L48.4,53.7z"/>
		<polygon class="st0" points="165.2,2 151.6,41 151.3,40.4 134.9,2 131.2,2 115.6,41 115.5,41.2 101.7,2 89.6,2 112.9,65.5 
			114,65.5 115.4,65.5 133.1,23.9 150.7,65.5 152.2,65.5 153.2,65.5 153.2,65.5 176.1,2 		"/>
		<path class="st0" d="M43.1,0C19.3,0,0,19.6,0,43.7s19.3,43.7,43.1,43.7c11.5,0,22.5-4.6,30.5-12.8c8.1-8.2,12.7-19.3,12.6-30.9
			C86.2,19.6,66.9,0,43.1,0z M43.1,78.6c-19.3,0-34.9-15.6-34.9-34.9c0-19.3,15.6-34.9,34.9-34.9C62.4,8.8,78,24.4,78,43.7
			C78,63,62.4,78.6,43.1,78.6z"/>
		<rect x="292.9" y="72.9" class="st0" width="9.9" height="12.6"/>
		<rect x="263.1" y="72.9" class="st0" width="9.9" height="12.6"/>
		<rect x="273" y="72.9" class="st3" width="9.9" height="12.6"/>
		<rect x="283" y="72.9" class="st2" width="9.9" height="12.6"/>
		<rect x="292.9" y="72.9" class="st1" width="9.9" height="12.6"/>
	</g>
</g>
</svg>
